{
  "accessors": [
    {
      "bufferView": 2,
      "componentType": 5126,
      "count": 1430,
      "max": [
        0.8354999423027039,
        0.9829266667366028,
        0.8822087049484253
      ],
      "min": [
        -0.8354999423027039,
        -0.9662442207336426,
        -1.4782111644744873
      ],
      "type": "VEC3"
    },
    {
      "bufferView": 2,
      "byteOffset": 17160,
      "componentType": 5126,
      "count": 1430,
      "max": [
        1.0,
        1.0,
        1.0
      ],
      "min": [
        -1.0,
        -1.0,
        -1.0
      ],
      "type": "VEC3"
    },
    {
      "bufferView": 3,
      "componentType": 5126,
      "count": 1430,
      "max": [
        1.0,
        0.9998041987419128,
        0.9993864893913269,
        1.0
      ],
      "min": [
        -1.0,
        -0.999804675579071,
        -0.9948844313621521,
        -1.0
      ],
      "type": "VEC4"
    },
    {
      "bufferView": 1,
      "componentType": 5126,
      "count": 1430,
      "max": [
        0.9770503044128418,
        0.9779458045959473
      ],
      "min": [
        0.015748918056488037,
        0.014956384897232056
      ],
      "type": "VEC2"
    },
    {
      "bufferView": 0,
      "componentType": 5125,
      "count": 7038,
      "type": "SCALAR"
    }
  ],
  "asset": {
    "extras": {
      "author": "le0tard (https://sketchfab.com/le0tard)",
      "license": "CC-BY-4.0 (http://creativecommons.org/licenses/by/4.0/)",
      "source": "https://sketchfab.com/3d-models/mandalorian-helmet-a8813ea1e0ce47ab97a416637a7520d7",
      "title": "Mandalorian Helmet"
    },
    "generator": "Sketchfab-12.67.0",
    "version": "2.0"
  },
  "bufferViews": [
    {
      "buffer": 0,
      "byteLength": 28152,
      "name": "floatBufferViews",
      "target": 34963
    },
    {
      "buffer": 0,
      "byteLength": 11440,
      "byteOffset": 28152,
      "byteStride": 8,
      "name": "floatBufferViews",
      "target": 34962
    },
    {
      "buffer": 0,
      "byteLength": 34320,
      "byteOffset": 39592,
      "byteStride": 12,
      "name": "floatBufferViews",
      "target": 34962
    },
    {
      "buffer": 0,
      "byteLength": 22880,
      "byteOffset": 73912,
      "byteStride": 16,
      "name": "floatBufferViews",
      "target": 34962
    }
  ],
  "buffers": [
    {
      "byteLength": 96792,
      "uri": "scene.bin"
    }
  ],
  "images": [
    {
      "uri": "textures/mandoM_baseColor.png"
    },
    {
      "uri": "textures/mandoM_metallicRoughness.png"
    },
    {
      "uri": "textures/mandoM_normal.png"
    }
  ],
  "materials": [
    {
      "doubleSided": true,
      "name": "mandoM",
      "normalTexture": {
        "index": 2
      },
      "pbrMetallicRoughness": {
        "baseColorTexture": {
          "index": 0
        },
        "metallicRoughnessTexture": {
          "index": 1
        }
      }
    }
  ],
  "meshes": [
    {
      "name": "helm_low_mandoM_0",
      "primitives": [
        {
          "attributes": {
            "NORMAL": 1,
            "POSITION": 0,
            "TANGENT": 2,
            "TEXCOORD_0": 3
          },
          "indices": 4,
          "material": 0,
          "mode": 4
        }
      ]
    }
  ],
  "nodes": [
    {
      "children": [
        1
      ],
      "matrix": [
        1.0,
        0.0,
        0.0,
        0.0,
        0.0,
        2.220446049250313e-16,
        -1.0,
        0.0,
        0.0,
        1.0,
        2.220446049250313e-16,
        0.0,
        0.0,
        0.0,
        0.0,
        1.0
      ],
      "name": "Sketchfab_model"
    },
    {
      "children": [
        2
      ],
      "matrix": [
        0.009999999776482582,
        0.0,
        0.0,
        0.0,
        0.0,
        0.0,
        0.009999999776482582,
        0.0,
        0.0,
        -0.009999999776482582,
        0.0,
        0.0,
        0.0,
        0.0,
        0.0,
        1.0
      ],
      "name": "23ac907399e94eddaca09d915a8afbee.fbx"
    },
    {
      "children": [
        3
      ],
      "name": "RootNode"
    },
    {
      "children": [
        4
      ],
      "matrix": [
        100.0,
        0.0,
        0.0,
        0.0,
        0.0,
        -1.629206793918314e-05,
        -99.99999999999868,
        0.0,
        0.0,
        99.99999999999868,
        -1.629206793918314e-05,
        0.0,
        0.0,
        151.55697631835938,
        0.0,
        1.0
      ],
      "name": "helm_low"
    },
    {
      "mesh": 0,
      "name": "helm_low_mandoM_0"
    }
  ],
  "samplers": [
    {
      "magFilter": 9729,
      "minFilter": 9987,
      "wrapS": 10497,
      "wrapT": 10497
    }
  ],
  "scene": 0,
  "scenes": [
    {
      "name": "Sketchfab_Scene",
      "nodes": [
        0
      ]
    }
  ],
  "textures": [
    {
      "sampler": 0,
      "source": 0
    },
    {
      "sampler": 0,
      "source": 1
    },
    {
      "sampler": 0,
      "source": 2
    }
  ]
}
